HIERARCHY
ROOT Hips
{
	OFFSET -80.168388 91.772041 -268.984589
	CHANNELS 6 Xposition Yposition Zposition Zrotation Yrotation Xrotation 
	JOINT LeftUpLeg
	{
		OFFSET 0.103457 1.857818 10.548502
		CHANNELS 3 Xrotation Yrotation Zrotation
		JOINT LeftLeg
		{
			OFFSET 43.500000 -0.000011 -0.000004
			CHANNELS 3 Xrotation Yrotation Zrotation
			JOINT LeftFoot
			{
				OFFSET 42.372192 -0.000004 -0.000008
				CHANNELS 3 Xrotation Yrotation Zrotation
				JOINT LeftToe
				{
					OFFSET 17.300014 0.000006 0.000001
					CHANNELS 3 Xrotation Yrotation Zrotation
					End Site
					{
						OFFSET 0.000000 0.000000 0.000000
					}
				}
			}
		}
	}
	JOINT RightUpLeg
	{
		OFFSET 0.103457 1.857817 -10.548505
		CHANNELS 3 Xrotation Yrotation Zrotation
		JOINT RightLeg
		{
			OFFSET 43.500046 -0.000004 0.000011
			CHANNELS 3 Xrotation Yrotation Zrotation
			JOINT RightFoot
			{
				OFFSET 42.372257 0.000000 0.000015
				CHANNELS 3 Xrotation Yrotation Zrotation
				JOINT RightToe
				{
					OFFSET 17.300003 -0.000000 0.000002
					CHANNELS 3 Xrotation Yrotation Zrotation
					End Site
					{
						OFFSET 0.000000 0.000000 0.000000
					}
				}
			}
		}
	}
	JOINT Spine
	{
		OFFSET 6.901961 -2.603721 -0.000001
		CHANNELS 3 Xrotation Yrotation Zrotation
		JOINT Spine1
		{
			OFFSET 12.588108 0.000002 -0.000001
			CHANNELS 3 Xrotation Yrotation Zrotation
			JOINT Spine2
			{
				OFFSET 12.343199 -0.000020 0.000006
				CHANNELS 3 Xrotation Yrotation Zrotation
				JOINT Neck
				{
					OFFSET 25.832905 0.000017 0.000000
					CHANNELS 3 Xrotation Yrotation Zrotation
					JOINT Head
					{
						OFFSET 11.766604 -0.000006 0.000004
						CHANNELS 3 Xrotation Yrotation Zrotation
						End Site
						{
							OFFSET 0.000000 0.000000 0.000000
						}
					}
				}
				JOINT LeftShoulder
				{
					OFFSET 19.745903 -1.480350 6.000100
					CHANNELS 3 Xrotation Yrotation Zrotation
					JOINT LeftArm
					{
						OFFSET 11.284130 -0.000016 -0.000016
						CHANNELS 3 Xrotation Yrotation Zrotation
						JOINT LeftForeArm
						{
							OFFSET 33.000046 0.000004 0.000031
							CHANNELS 3 Xrotation Yrotation Zrotation
							JOINT LeftHand
							{
								OFFSET 25.199999 0.000027 0.000001
								CHANNELS 3 Xrotation Yrotation Zrotation
								End Site
								{
									OFFSET 0.000000 0.000000 0.000000
								}
							}
						}
					}
				}
				JOINT RightShoulder
				{
					OFFSET 19.746094 -1.480375 -6.000080
					CHANNELS 3 Xrotation Yrotation Zrotation
					JOINT RightArm
					{
						OFFSET 11.284131 -0.000016 -0.000017
						CHANNELS 3 Xrotation Yrotation Zrotation
						JOINT RightForeArm
						{
							OFFSET 33.000095 0.000009 0.000020
							CHANNELS 3 Xrotation Yrotation Zrotation
							JOINT RightHand
							{
								OFFSET 25.199789 0.000132 0.000423
								CHANNELS 3 Xrotation Yrotation Zrotation
								End Site
								{
									OFFSET 0.000000 0.000000 0.000000
								}
							}
						}
					}
				}
			}
		}
	}
}
MOTION
Frames: 8
Frame Time: 0.033333
115.615303 88.899040 534.779419 97.730213 9.542502 -88.620393 149.648666 8.453998 164.925313 -38.474500 1.420780 -7.702860 83.928067 5.896574 2.564486 21.454557 0.003108 0.000017 178.731844 3.168101 -176.078247 -35.616329 3.766276 -5.974819 68.631551 9.468518 14.310260 21.454553 -0.003093 -0.000000 7.925047 -0.182660 2.424682 5.827092 -0.486527 4.837154 5.510197 -0.457490 4.839993 -5.054022 5.995024 3.916004 -12.147322 -16.577245 10.587540 -140.465081 -74.515492 -41.893986 39.605600 30.583494 63.435095 -77.907187 -7.408407 2.333380 -7.915675 -10.602518 31.568974 160.798567 83.676525 -17.753429 -27.692992 -48.375921 -9.313023 -116.109391 1.337535 -3.540502 12.899632 -6.220815 -57.894746 
116.874802 87.586517 530.897522 99.005327 8.529314 -85.091897 153.615613 9.519314 166.267882 -32.801311 0.949528 -10.286484 86.603186 8.337259 7.076847 21.454555 0.003106 0.000016 177.546027 1.863911 -179.433741 -44.229358 3.683681 -4.934388 69.693871 7.834878 12.289833 21.454553 -0.003092 0.000002 8.042158 0.019875 2.179008 6.070108 -0.074007 4.356019 5.752991 -0.047863 4.356374 -2.697067 6.754433 3.203176 -14.131239 -16.714668 10.286124 -139.161717 -74.170602 -43.240780 41.654506 31.247306 61.051209 -81.411204 -6.123976 2.395503 -7.871768 -9.357054 33.173617 168.192384 83.337706 -10.306195 -22.971646 -47.843474 -12.095257 -118.053304 1.125882 -3.606204 11.584734 -7.411242 -53.783560 
118.050201 85.126457 527.125000 99.402359 6.958318 -81.252292 156.326583 10.838310 168.362169 -34.874874 1.076824 -13.305032 95.324026 10.266499 14.342974 21.454558 0.003109 0.000017 175.999686 1.865402 179.214957 -55.129612 3.182429 -2.964110 72.939761 6.135280 12.686579 21.454557 -0.003094 0.000005 8.320578 0.074409 1.865917 6.629035 0.042225 3.733003 6.311664 0.064608 3.732668 0.209641 7.633907 2.401647 -16.463939 -16.340063 9.719676 -138.984500 -73.661780 -43.445378 41.354179 33.006387 57.005783 -85.251744 -4.390524 2.443022 -7.218337 -9.267597 32.193537 -179.545715 82.667166 2.066713 -17.272874 -47.782743 -14.976926 -119.054104 0.924267 -3.633176 10.358750 -8.265709 -49.585223 
118.859901 82.515831 523.474182 97.688104 5.407782 -77.215302 158.050482 12.787793 170.340232 -41.463070 1.004438 -13.967931 103.635294 9.395134 13.017430 21.454558 0.003100 0.000016 173.821976 3.985311 178.659375 -66.836229 1.597381 0.130502 73.104088 3.837660 12.434913 21.454555 -0.003093 -0.000004 8.866325 -0.304082 1.416170 7.711336 -0.701632 2.808981 7.393641 -0.684805 2.813164 2.181460 7.769493 1.689622 -18.315291 -14.706821 8.563539 -141.539292 -72.695964 -40.874878 36.423493 36.886003 50.488092 -87.302494 -3.410124 2.465311 -6.087685 -10.074779 30.011359 -168.409106 80.814976 13.332286 -11.621040 -48.169861 -17.173363 -117.899201 0.877676 -3.582635 10.065603 -8.338984 -46.848811 
119.363297 80.305054 519.796814 95.110548 4.462892 -72.954104 159.651287 14.554904 171.311950 -47.640382 0.511445 -12.898028 107.950908 8.147777 12.285104 21.454560 0.003111 0.000017 170.249855 6.341587 177.511357 -78.456272 -0.661308 3.604387 73.004190 1.047254 11.320769 21.454551 -0.003083 -0.000000 9.582843 -0.883444 0.919222 9.139844 -1.836631 1.766004 8.821720 -1.826054 1.777052 2.651834 7.334812 0.984159 -19.792116 -12.159722 6.948583 -148.154412 -71.525557 -34.135086 25.782304 42.021103 40.427094 -86.902922 -3.936450 2.484347 -4.890874 -10.217847 30.781436 -163.694089 77.756205 18.141411 -6.018647 -49.490092 -18.597615 -113.961208 1.388172 -3.453961 12.171831 -6.859392 -52.376595 
119.572403 78.832001 515.947815 93.367320 4.660631 -68.234498 162.164551 14.833890 171.829869 -50.600230 -0.194162 -10.207409 111.581303 6.006602 12.499251 21.454558 0.003109 0.000016 164.339829 7.230699 176.278453 -89.199136 -2.505558 6.697418 74.342047 -2.466453 7.282862 21.454545 -0.003089 -0.000004 10.104662 -1.287802 0.364478 10.192124 -2.602590 0.614194 9.873686 -2.598971 0.629906 2.307213 7.115338 0.229845 -21.030414 -9.826399 5.359766 -157.801549 -70.900062 -24.229623 11.881107 46.132211 28.123603 -86.280575 -5.054431 2.534840 -4.364401 -8.629194 37.128560 -162.999883 74.652390 18.879510 0.531066 -52.429785 -20.248697 -109.039107 2.445104 -3.317242 17.508703 -2.316160 -72.725505 
119.311203 78.466621 511.797394 92.982890 6.190454 -62.977513 165.195556 14.308894 173.579586 -49.777500 -0.705266 -7.120777 113.362699 3.859377 12.635006 21.454558 0.003108 0.000018 156.447163 7.113199 175.510248 -96.547463 -3.369191 9.036685 75.812832 -4.363722 6.705890 21.454557 -0.003092 0.000001 10.150711 -1.361535 -0.411798 10.302448 -2.680892 -0.943488 9.984026 -2.686675 -0.927288 1.585692 7.505990 -0.398891 -21.472344 -8.618099 4.367827 -167.648919 -71.342241 -14.085816 -0.337987 49.042210 17.419306 -88.354876 -4.807481 2.609663 -4.798164 -6.287102 45.319644 -161.985422 72.544095 19.942865 9.318064 -56.041299 -24.059256 -106.598400 3.136313 -3.259503 25.126768 4.234234 -100.618898 
118.412697 79.259903 507.160492 94.500899 7.983736 -57.470612 169.178267 12.621995 177.533173 -44.922062 -1.358623 -4.809440 112.801612 2.519692 12.225479 21.454557 0.003106 0.000018 147.831904 5.987892 176.062264 -99.587430 -3.410223 9.763615 76.936644 -5.535014 4.578288 21.454557 -0.003089 -0.000003 9.791723 -0.934672 -1.427923 9.594100 -1.747670 -2.928710 9.276302 -1.765446 -2.918123 0.138118 8.437862 -0.644460 -20.701147 -8.809477 4.388850 -175.403096 -73.015678 -6.119985 -8.350676 52.320297 11.095215 -93.523998 -2.956674 2.711163 -5.511874 -5.314353 47.364691 -159.031188 71.549715 22.994088 20.392273 -57.574841 -30.877721 -107.871500 3.041057 -3.308288 33.511449 7.914309 -114.613293 
